<?xml version="1.0" encoding="UTF-8" standalone="no"?><!DOCTYPE svg PUBLIC "-//W3C//DTD SVG 1.1//EN" "http://www.w3.org/Graphics/SVG/1.1/DTD/svg11.dtd"><svg width="100%" height="100%" viewBox="0 0 4022 774" version="1.1" xmlns="http://www.w3.org/2000/svg" xmlns:xlink="http://www.w3.org/1999/xlink" xml:space="preserve" xmlns:serif="http://www.serif.com/" style="fill-rule:evenodd;clip-rule:evenodd;stroke-linejoin:round;stroke-miterlimit:2;"><g><path d="M1906.642,7.645c66.719,7.882 119.948,65.955 92.309,134.479c-10.469,26.024 -32.465,29.826 -51.91,46.111c99.201,13.385 108.021,144.41 19.236,182.569c-7.257,3.125 -38.628,13.472 -44.236,13.472l-171.233,0l0,-376.632c49.288,4.236 107.691,-5.694 155.833,0m-78.889,153.715l71.198,0c27.24,0 37.865,-48.854 23.003,-69.097c-2.691,-3.663 -20.66,-15.434 -23.003,-15.434l-71.198,0l0,84.531Zm0,153.698l86.58,0c1.128,0 16.632,-9.427 19.236,-11.545c28.906,-23.507 20.712,-62.448 -14.115,-74.271c-3.108,-1.042 -26.788,-6.424 -28.212,-6.424l-63.49,0l0,92.24Z" style="fill-rule:nonzero;"/><path d="M487.88,1.103c264.115,-24.74 292.396,374.792 33.438,390.764c-258.958,15.955 -283.16,-367.361 -33.438,-390.764m15.538,68.958c-153.455,4.497 -150.521,253.802 6.007,252.309c156.528,-1.51 153.733,-257.014 -6.007,-252.309" style="fill-rule:nonzero;"/><path d="M921.578,7.645c136.094,16.128 146.997,191.823 17.361,224.757l103.854,151.806l-86.58,0c-27.361,-39.444 -53.872,-79.497 -80.503,-119.444c-8.663,-13.003 -8.507,-30.625 -29.167,-26.597l0,146.042l-76.962,0l0,-376.562c48.108,4.115 105.017,-5.573 151.997,0m-75.035,161.389l63.49,0c19.618,0 43.299,-24.479 44.028,-44.531c0.729,-20.052 -21.024,-47.708 -40.174,-47.708l-67.344,0l0,92.24Z" style="fill-rule:nonzero;"/><path d="M1339.076,384.24l155.694,-376.858l63.212,0.729l150.486,376.128l-78.872,0l-31.319,-72.5l-151.493,1.354l-26.91,71.111l-80.799,0l0,0.035Zm234.722,-138.333l-53.837,-138.333l-50.052,138.333l103.889,0Z" style="fill-rule:nonzero;"/><path d="M3351.533,384.24l150.417,-370.521c9.08,-12.656 47.639,-3.038 63.299,-6.389l159.531,376.875l-84.653,0l-23.507,-72.569l-154.878,0.069l-31.319,72.5l-78.889,0l0,0.035Zm238.576,-138.333l-51.944,-142.222l-51.962,142.222l103.906,0Z" style="fill-rule:nonzero;"/><path d="M2970.667,111.384c-14.583,-60.174 -130.938,-55.26 -110.851,12.656c6.962,23.594 74.566,36.753 96.389,45.868c45.938,19.201 81.337,47.257 83.681,101.094c6.424,147.17 -232.101,158.49 -280.66,38.628l65.104,-40.747c9.306,58.941 136.944,78.333 137.951,13.542c0.764,-49.531 -67.795,-54.253 -101.51,-67.188c-33.715,-12.934 -71.458,-38.021 -77.812,-75.99c-25.312,-151.198 185.625,-185.017 252.691,-71.458c1.233,8.316 -54.948,37.587 -64.948,43.559l-0.035,0.035Z" style="fill-rule:nonzero;"/><path d="M2593.495,7.645l0,69.184l-146.215,0l0,84.531l142.361,0l0,65.312l-142.361,0l0,88.385l146.215,0l0,69.184l-223.177,0l0,-376.597l223.177,0Z" style="fill-rule:nonzero;"/><path d="M4021.069,72.905l-63.49,38.125c-12.552,-12.691 -21.233,-30.625 -38.819,-37.656c-36.528,-14.635 -93.976,5.885 -74.931,51.788c9.74,23.507 89.323,40.937 115.243,53.976c31.597,15.938 57.118,39.983 61.649,76.806c20.208,164.01 -224.062,177.326 -280.434,51.528l63.524,-38.247c15.781,45.712 106.059,78.108 134.497,34.201c42.396,-65.486 -83.733,-80.538 -117.361,-97.691c-76.198,-38.819 -77.587,-143.455 -3.785,-184.67c70.347,-39.271 165.035,-21.771 204.028,51.875l-0.122,-0.035Z" style="fill-rule:nonzero;"/><path d="M76.962,245.872l0,138.368l-76.962,0l0,-376.597l155.851,0c7.569,0 41.319,11.233 50.052,15.312c102.656,48.142 62.257,222.917 -42.361,222.917l-86.58,0Zm0,-65.295l63.49,0c5.92,0 31.788,-11.701 36.667,-17.17c23.212,-25.972 7.24,-86.58 -25.122,-86.58l-75.035,0l0,103.75Z" style="fill-rule:nonzero;"/><path d="M3182.226,245.872l0,138.368l-76.962,0l0,-376.597l155.851,0c6.493,0 38.976,11.076 46.892,14.618c79.583,35.521 80.781,166.701 6.354,207.639c-7.344,4.045 -38.941,15.972 -45.556,15.972l-86.58,0Zm0,-65.295l59.635,0c1.389,0 23.368,-7.205 26.094,-8.542c30.139,-15.017 32.865,-69.201 4.115,-86.979c-2.413,-1.493 -17.656,-8.264 -18.663,-8.264l-71.181,0l0,103.785Z" style="fill-rule:nonzero;"/><path d="M2655.023,488.018c1.146,7.274 -0.191,11.233 -3.663,17.431c-10.955,19.479 -45.399,48.75 -61.597,69.115c-18.003,22.656 -41.979,54.323 -54.635,79.948c-49.41,100.243 102.691,22.552 136.562,1.892c7.413,-4.549 11.684,-12.24 18.229,-16.354c23.906,-15.052 82.396,-49.792 103.125,-18.976c15.208,22.552 -6.84,37.066 5.312,58.177c13.854,13.715 70.295,-5.226 85.156,-14.913c18.507,-12.083 21.198,-52.5 45.208,-32.361l1.424,17.465c11.545,-9.965 66.111,-40.521 74.427,-16.667c7.691,22.135 -22.135,68.872 28.628,58.073c57.413,-12.24 98.576,-128.021 167.222,-68.854l8.785,-1.181c12.726,-20.469 92.066,-132.795 109.618,-132.917l9.653,5.972l-1.91,9.549c-24.323,27.205 -47.066,55.903 -68.194,85.608c-12.188,17.118 -47.639,64.687 -53.872,80.694c-28.316,72.726 116.823,5.573 137.535,-12.552c7.378,-2.153 7.153,4.653 5.226,9.132c-8.924,20.972 -120.625,59.705 -144.375,59.757c-46.285,0.035 -19.514,-55.608 -24.514,-61.181c-23.351,3.455 -68.333,48.819 -89.965,34.167c-6.389,-4.323 -7.569,-15.243 -15.191,-14.635c-20.469,11.892 -46.528,31.441 -71.146,24.097c-32.865,-9.844 -20.365,-34.601 -23.75,-57.222c-0.851,-5.694 2.274,-6.111 -5.851,-5.764c-33.403,1.458 -83.681,69.635 -100.156,69.34c-15.434,-0.312 -7.743,-18.715 -1.736,-26.91c-45.243,9.549 -80.694,36.91 -106.198,-18.958c-34.826,13.073 -79.34,57.17 -107.326,12.083c-40.972,18.16 -157.188,84.844 -155.955,-0.851c-22.622,9.08 -58.368,25.816 -82.795,23.351c-22.865,-2.309 -27.708,-32.899 -34.913,-34.583c-34.931,13.42 -85.538,60.556 -107.691,7.188c-39.635,9.462 -87.934,28.976 -127.639,33.819c-88.507,10.816 -34.983,-110.087 39.201,-98.733c31.562,4.809 32.17,41.406 1.58,51.059c-10,3.16 -62.326,7.465 -64.792,10.243c5.156,28.056 70.451,10.885 93.125,6.545c48.785,-9.392 53.368,-15.625 91.806,-38.993c25.017,-15.191 84.531,-51.91 104.427,-16.389c10.781,19.236 -0.799,26.163 -0.538,42.865c0.573,34.444 69.774,9.045 87.083,-0.955c12.083,-7.014 51.059,-74.531 64.948,-92.691c11.667,-15.243 29.01,-36.441 41.979,-50.33c5.816,-6.25 39.792,-43.212 48.142,-34.531l0,-0.069Zm530.851,138.559c-11.337,-17.309 -81.875,27.778 -80.608,49.688c6.51,5.764 43.49,-15.052 51.25,-19.861c7.778,-4.809 35.104,-21.042 29.358,-29.826m-1000.295,7.465c-8.663,-0.955 -16.285,1.806 -24.167,4.618c-5.816,2.083 -19.271,8.542 -21.979,14.514c12.431,-1.58 27.135,-4.549 38.524,-9.705c5.851,-2.656 9.462,0.469 7.622,-9.462l0,0.035Zm200.122,0c-26.736,2.465 -57.135,20.66 -73.056,42.222c17.344,-4.167 37.465,-13.125 52.674,-22.24c5.851,-3.507 21.58,-11.545 20.382,-19.983m380.955,0c-26.753,2.465 -57.153,20.66 -73.073,42.222c17.344,-4.167 37.483,-13.125 52.674,-22.24c5.851,-3.507 21.58,-11.545 20.399,-19.983" style="fill-rule:nonzero;"/><path d="M1366.012,7.645l0,69.184l-107.743,0l0,307.413l-73.108,0l0,-307.413l-107.743,0l0,-69.184l288.594,0Z" style="fill-rule:nonzero;"/><path d="M2166.377,7.645l0,307.413l138.524,0l0,69.184l-215.486,0l0,-376.597l76.962,0Z" style="fill-rule:nonzero;"/><path d="M2030.392,562.32c7.465,7.465 13.767,29.045 17.708,32.292c11.424,9.497 44.67,-2.517 52.865,16.302c-18.976,7.118 -39.444,-0.104 -57.413,9.965c-3.924,2.205 -63.177,57.448 -65.833,61.076c-2.465,3.351 -5.156,4.08 -3.733,9.688c34.514,10.469 80.764,16.823 103.889,46.111c-25.087,-1.771 -48.333,-14.479 -73.767,-20.434c-68.681,-16.094 -64.479,-3.976 -122.587,18.42c-58.42,22.483 -134.288,49.722 -196.944,31.719c-27.309,-7.865 -61.146,-37.517 -27.396,-59.757c31.562,-20.781 114.323,-25.99 153.108,-27.708c32.708,-1.458 94.896,6.146 122.361,-0.781c18.594,-4.688 53.646,-37.049 68.264,-50.972l-34.288,-11.788l-4.219,-11.267c12.812,-7.847 82.535,1.076 59.913,-25.087c-39.792,-46.059 -218.576,-12.934 -273.403,7.969c-12.309,0.538 -6.076,-14.861 2.969,-20.174c10.278,-6.042 46.753,-13.854 60.365,-16.545c45.955,-9.08 184.896,-22.153 218.177,11.042l-0.035,-0.069Zm-141.111,137.066c-40.399,-5.052 -87.604,-1.267 -128.403,4.306c-21.163,2.882 -73.42,11.319 -89.809,21.736c-22.309,14.201 9.74,21.753 24.323,23.472c53.941,6.389 102.847,-9.531 152.569,-27.396l41.285,-22.083l0.035,-0.035Z" style="fill-rule:nonzero;"/><path d="M811.875,580.214c-27.24,18.594 -143.49,190.59 -159.809,192.274c-16.302,1.701 -14.427,-9.878 -8.837,-20.694c18.073,-35.087 89.722,-116.979 118.785,-150.347c9.618,-11.042 59.826,-68.247 68.021,-70.608c13.438,-3.837 20.208,6.892 19.549,19.514c-2.222,43.785 -62.76,147.031 -33.941,185.59c19.983,26.701 74.236,-1.962 97.465,-14.323c77.812,-41.285 147.413,-113.785 216.302,-168.299c29.861,12.726 -23.056,54.861 -36.562,67.292c-53.941,49.601 -153.906,126.285 -224.062,145.104c-21.319,5.694 -29.635,9.774 -48.906,-3.264c-56.597,-38.333 -10.625,-128.646 -8.003,-182.24" style="fill-rule:nonzero;"/><path d="M1296.712,676.296c-5.312,-5.694 -124.67,37.986 -151.649,34.444c-66.753,-8.819 -8.316,-109.948 57.188,-99.514c18.698,2.969 26.128,17.552 20.625,35.521c-6.076,19.896 -65.642,20.503 -83.889,25.747c-0.469,10.851 7.934,14.306 17.118,15.538c21.476,2.847 131.753,-17.708 146.181,-31.163c10.156,-9.514 31.094,-59.184 47.986,-29.062c-8.003,13.438 -20.503,23.663 -28.281,37.222c-14.306,25 -8.42,36.042 16.858,16.84c15.191,-11.545 18.507,-42.135 36.667,-21.111c-16.198,75.417 85.885,0 90.382,-32.795c4.167,-30.365 -21.354,-14.01 -19.08,-36.128c21.128,-5.382 39.566,19.167 41.597,37.517c4.688,41.476 -67.413,87.847 -104.167,80.799c-11.545,-2.188 -26.128,-18.542 -34.965,-17.656c-17.431,1.701 -56.024,48.49 -52.569,-16.128l0,-0.069Zm-96.198,-42.257c-15.538,0.191 -36.51,6.042 -46.128,19.167c12.344,-1.458 27.274,-4.618 38.507,-9.688c5.851,-2.656 9.462,0.451 7.622,-9.479Z" style="fill-rule:nonzero;"/></g></svg>